<svg width="251" height="156" viewBox="0 0 251 156" fill="none" xmlns="http://www.w3.org/2000/svg">
<path d="M91.2157 73.2243C91.2495 73.0815 91.3456 72.9483 91.4673 72.7801C91.4673 72.78 91.4673 72.7799 91.4673 72.7798C91.4847 72.7558 91.5028 72.731 91.5211 72.7054C91.6688 72.4993 91.8483 72.2315 92.0202 71.827C92.2108 71.38 92.5561 71.0274 92.8481 70.8132C92.9027 70.7733 92.9379 70.7317 92.9887 70.6264C93.022 70.5573 93.0606 70.4638 93.1167 70.329C93.1466 70.2573 93.1812 70.1738 93.2227 70.0761C93.3598 69.7527 93.4901 69.2449 93.6165 68.7771C93.6929 68.4932 93.7674 68.224 93.8364 68.0197C93.9372 67.7209 94.0668 67.4331 94.2074 67.1203C94.3363 66.8339 94.4745 66.5265 94.6114 66.1705C94.7169 65.8974 94.95 65.6342 95.1929 65.367C95.2238 65.333 95.2549 65.2989 95.286 65.2647C95.5009 65.029 95.7145 64.788 95.8704 64.5262C96.1475 64.0596 96.1948 63.6842 96.2619 63.2687C96.2878 63.1062 96.3159 62.9375 96.3589 62.7549C96.4269 62.466 96.5624 62.0514 96.7009 61.6352C96.7127 61.5998 96.7243 61.5643 96.7362 61.5289C96.7362 61.5287 96.7363 61.5285 96.7363 61.5283C96.8635 61.1474 96.9889 60.7736 97.069 60.4991C97.1963 60.0629 97.2181 59.8983 97.2372 59.761C97.2445 59.7093 97.2513 59.6616 97.2638 59.6047C97.3086 59.3998 97.4243 59.0917 97.5409 58.7793C97.5413 58.7781 97.5417 58.7769 97.5422 58.7757C97.5618 58.7239 97.6549 58.6838 97.75 58.6861C97.8452 58.6885 97.9096 58.7325 97.8939 58.7844C97.8429 58.9501 97.793 59.1117 97.7524 59.2565C97.8407 59.266 97.8992 59.3065 97.8863 59.3533C97.8543 59.4703 97.8235 59.8302 97.8231 60.3943C97.8516 60.3562 97.8779 60.3244 97.9022 60.2966C97.9306 60.2639 97.9541 60.2389 97.9742 60.2174C98.016 60.1725 98.0432 60.1427 98.0697 60.0893C98.1131 59.9652 98.1571 59.7697 98.203 59.5639C98.2149 59.512 98.3125 59.4719 98.4213 59.4745C98.5301 59.4771 98.6118 59.5214 98.6038 59.5735C98.6036 59.5745 98.6035 59.5755 98.6033 59.5765C98.5705 59.7806 98.5376 59.9826 98.4996 60.1123C98.4899 60.1453 98.48 60.1737 98.4717 60.195C98.465 60.212 98.4562 60.2333 98.4472 60.245C98.446 60.2466 98.4436 60.2495 98.4401 60.253C98.44 60.2531 98.4399 60.2532 98.4398 60.2532C98.4379 60.2552 98.428 60.2652 98.4083 60.2758C98.4043 60.2779 98.3954 60.2825 98.3813 60.2878C98.3801 60.2892 98.3788 60.2907 98.3776 60.2921C98.3602 60.3118 98.3424 60.3319 98.3246 60.3537C98.255 60.4389 98.1617 60.5741 98.0279 60.8571C97.9051 61.1173 97.7771 61.5589 97.6608 62.1109C97.6799 62.0738 97.6986 62.0366 97.7167 61.9995C97.7623 61.9061 97.8049 61.8121 97.8458 61.7181C97.8614 61.6821 97.8767 61.6465 97.8919 61.6103C97.9164 61.552 97.9405 61.4936 97.964 61.4351C97.9799 61.3956 97.9955 61.3561 98.0111 61.3165C98.0111 61.3164 98.0112 61.3163 98.0112 61.3163C98.0328 61.2614 98.0544 61.2064 98.0761 61.1509C98.0839 61.1315 98.0915 61.1123 98.099 61.0933C98.1286 61.0175 98.1573 60.943 98.2013 60.8576C98.2079 60.8472 98.2161 60.836 98.2227 60.8276C98.2296 60.8186 98.2366 60.8099 98.2436 60.8017C98.2498 60.7945 98.256 60.7876 98.2618 60.781C98.2626 60.7802 98.2633 60.7793 98.2641 60.7784C98.2706 60.771 98.2766 60.7639 98.2823 60.7572C98.2879 60.7504 98.2934 60.7438 98.2982 60.7374C98.2983 60.7374 98.2983 60.7373 98.2983 60.7372C98.3033 60.7305 98.307 60.7254 98.3115 60.7182C98.3172 60.7093 98.3217 60.7015 98.3264 60.6922C98.331 60.6831 98.3352 60.6736 98.3392 60.6641C98.3431 60.6545 98.3468 60.6448 98.3503 60.6349C98.3538 60.625 98.3572 60.6149 98.3604 60.6047C98.3636 60.5946 98.3666 60.5843 98.3696 60.5739C98.3726 60.5636 98.3757 60.5531 98.3787 60.5426C98.3856 60.5184 98.4147 60.4957 98.4601 60.4795C98.5056 60.4633 98.5633 60.455 98.6218 60.4563C98.6803 60.4577 98.7353 60.4686 98.7757 60.4867C98.8161 60.5049 98.8384 60.5288 98.8381 60.5531C98.838 60.5597 98.838 60.5664 98.8379 60.5731C98.8378 60.5771 98.8377 60.5811 98.8376 60.5851C98.8374 60.5958 98.8373 60.6066 98.8368 60.6175C98.8364 60.6284 98.8357 60.6394 98.8349 60.6505C98.834 60.6617 98.833 60.673 98.8315 60.6844C98.83 60.6958 98.828 60.7075 98.8254 60.7193C98.823 60.7308 98.8193 60.744 98.8153 60.7557C98.8124 60.7643 98.8079 60.7748 98.8039 60.7836C98.7997 60.7928 98.7951 60.8018 98.7904 60.8105C98.7857 60.8193 98.7808 60.8277 98.7761 60.8357C98.7756 60.8366 98.7752 60.8374 98.7747 60.8383C98.7706 60.8454 98.7665 60.8523 98.7629 60.8587C98.7589 60.866 98.7554 60.8729 98.7523 60.8794C98.7488 60.8866 98.7473 60.891 98.7455 60.8964C98.7299 60.9677 98.7216 61.056 98.7137 61.1403C98.7127 61.1509 98.7116 61.1614 98.7106 61.1718C98.7056 61.2271 98.7008 61.2824 98.6961 61.3376C98.6927 61.3777 98.6893 61.4178 98.6857 61.458C98.6805 61.5172 98.6749 61.5765 98.6691 61.6358C98.6654 61.6726 98.6616 61.7087 98.6576 61.7454C98.6471 61.8413 98.6353 61.9374 98.6208 62.0336C98.6063 62.1297 98.5892 62.2263 98.5677 62.3229C98.5462 62.4191 98.519 62.519 98.4837 62.6153C98.4575 62.686 98.4178 62.7583 98.3771 62.8252C98.3553 62.8611 98.3331 62.8962 98.3108 62.9309C98.3106 62.931 98.3105 62.9311 98.3104 62.9312C98.2908 62.9616 98.2713 62.9916 98.2525 63.0214C98.212 63.0853 98.1746 63.1481 98.1411 63.211C98.1077 63.2738 98.0783 63.3364 98.0532 63.3996C98.0283 63.4622 98.0071 63.526 97.9902 63.5893C97.9731 63.6529 97.9602 63.7153 97.9498 63.7811C97.9364 63.8674 97.9282 63.9534 97.9207 64.0416C97.9135 64.1291 97.908 64.2174 97.9028 64.306C97.9009 64.3369 97.8989 64.3679 97.8971 64.3989C97.8971 64.3991 97.8971 64.3992 97.8971 64.3993C97.8938 64.4567 97.8906 64.5143 97.8872 64.5719C97.8819 64.6608 97.8763 64.75 97.869 64.8394C97.8617 64.9289 97.853 65.0189 97.8406 65.1092C97.8281 65.1996 97.8121 65.2924 97.7857 65.3854C97.7624 65.4684 97.7356 65.552 97.709 65.6337C97.7019 65.6553 97.6949 65.6768 97.6878 65.6984C97.6546 65.8008 97.6248 65.9 97.6058 65.9982C97.5866 66.0963 97.5775 66.1946 97.5768 66.2939C97.5761 66.3929 97.5834 66.4933 97.5959 66.5945C97.6084 66.6962 97.626 66.7966 97.6471 66.8991C97.6681 67.0008 97.6922 67.1031 97.7191 67.2066C97.7339 67.2641 97.7464 67.3253 97.7562 67.383C97.7661 67.4413 97.774 67.4992 97.7809 67.5564C97.7837 67.5795 97.7862 67.6026 97.7889 67.6255C97.7928 67.659 97.7965 67.6921 97.8008 67.7247C97.808 67.7797 97.8166 67.8334 97.8285 67.8856C97.8404 67.9378 97.8558 67.9886 97.8767 68.0376C97.8985 68.0884 97.9223 68.1304 97.9579 68.1806C98.0229 68.3027 98.0379 68.378 98.0547 68.4617C98.058 68.4781 98.0617 68.495 98.0655 68.5125C98.0836 68.6128 98.0937 68.7128 98.098 68.8115C98.1023 68.9111 98.1008 69.0091 98.0937 69.1082C98.0868 69.2064 98.0742 69.3052 98.0567 69.4036C98.0392 69.5018 98.0167 69.5997 97.9888 69.6979C97.961 69.7959 97.9271 69.896 97.8896 69.9919C97.8679 70.0474 97.8413 70.1063 97.8147 70.161C97.7956 70.2004 97.7758 70.2393 97.7563 70.2774C97.7484 70.2929 97.7404 70.3084 97.7326 70.3237C97.7058 70.3766 97.6804 70.4279 97.6593 70.4776C97.6382 70.5272 97.6212 70.5753 97.6101 70.6224C97.5991 70.6696 97.594 70.7159 97.5949 70.7622C97.5962 70.8103 97.6018 70.8502 97.6158 70.9014C97.6251 70.9347 97.6347 70.9673 97.6444 70.9999C97.6588 71.0486 97.6738 71.097 97.6897 71.1457C97.7055 71.1944 97.7221 71.2424 97.7397 71.2907C97.7454 71.3063 97.7514 71.3227 97.7573 71.3383C97.7756 71.3864 97.7949 71.434 97.8157 71.4816C97.8366 71.529 97.8588 71.5761 97.883 71.6229C97.9073 71.67 97.9331 71.7163 97.9616 71.7635C98.0102 71.8438 98.0266 71.9203 98.035 71.9872C98.0432 72.055 98.0436 72.1182 98.0438 72.1797C98.0438 72.1912 98.0439 72.2027 98.0439 72.2142C98.0438 72.2639 98.0434 72.3127 98.0447 72.3608C98.0462 72.42 98.05 72.4782 98.0564 72.5366C98.0626 72.5945 98.0715 72.653 98.0837 72.7106C98.0961 72.7688 98.1107 72.8245 98.13 72.8845C98.1489 72.9438 98.1764 73.0041 98.2062 73.0702C98.2359 73.1357 98.2662 73.2044 98.2912 73.274C98.3163 73.3434 98.3362 73.4139 98.3495 73.4839C98.3629 73.554 98.3701 73.6242 98.3718 73.6934C98.3735 73.763 98.3696 73.8322 98.3616 73.9009C98.3535 73.9695 98.3407 74.0403 98.3249 74.1066C98.2992 74.2138 98.2705 74.3206 98.2405 74.4275C98.2105 74.5339 98.179 74.6405 98.1465 74.747C98.1141 74.8533 98.0809 74.9596 98.0468 75.0658C98.0128 75.1721 97.9782 75.2783 97.9432 75.3844C97.9355 75.4078 97.9278 75.4313 97.92 75.4548C97.8927 75.5374 97.8653 75.62 97.8381 75.7022C97.8378 75.7028 97.8376 75.7034 97.8373 75.7039C97.8025 75.8098 97.7682 75.9137 97.7357 76.0188C97.7238 76.0573 97.7125 76.0943 97.7017 76.132C97.691 76.1697 97.6809 76.2067 97.6715 76.244C97.6635 76.2759 97.6561 76.3076 97.6496 76.339C97.6485 76.3444 97.6474 76.3498 97.6463 76.3551C97.6389 76.3921 97.6325 76.4282 97.6276 76.4646C97.6231 76.498 97.6205 76.5311 97.6172 76.5673C97.6169 76.5706 97.6166 76.5739 97.6163 76.5772C97.6126 76.6168 97.6054 76.6619 97.5928 76.7037C97.5585 76.8145 97.5266 76.9226 97.4957 77.0326C97.4648 77.1426 97.4354 77.2524 97.405 77.3631C97.3931 77.4063 97.3812 77.4498 97.3688 77.4932C97.3494 77.5608 97.329 77.6287 97.3069 77.6967C97.2706 77.8087 97.2292 77.9208 97.1802 78.0337C97.1315 78.1462 97.0751 78.2594 97.0112 78.3721C96.9474 78.4847 96.8757 78.5982 96.7982 78.7103C96.7118 78.8352 96.6212 78.9594 96.5277 79.0842C96.4342 79.2088 96.3379 79.3335 96.24 79.4576C96.1418 79.5823 96.042 79.7066 95.9406 79.831C95.8392 79.9556 95.7364 80.08 95.6326 80.2046C95.5705 80.2792 95.5079 80.3537 95.4452 80.4283C95.436 80.4678 95.4269 80.5056 95.4174 80.542C95.3461 80.8109 95.2721 81.0052 95.1168 81.262C95.1041 81.2866 95.0974 81.3066 95.0888 81.3309C95.0871 81.3356 95.0853 81.3405 95.0834 81.3455C95.0718 81.3773 95.0564 81.4138 95.0234 81.4647C94.9591 81.566 94.8172 81.7216 94.5544 81.923C94.4877 81.9739 94.3597 82.0066 94.2641 81.996C94.1967 81.9885 94.1601 81.9617 94.1627 81.9289C94.1103 81.9898 94.0581 82.0505 94.0069 82.1111C93.9864 82.1353 93.9494 82.158 93.9048 82.1743C93.8633 82.1894 93.8184 82.1977 93.7771 82.1978C93.7771 82.1978 93.7771 82.1978 93.7771 82.1978C93.7739 82.1979 93.7707 82.1978 93.7675 82.1977C93.7236 82.1965 93.6873 82.1857 93.665 82.1676C93.6427 82.1496 93.6361 82.1259 93.6478 82.1016C93.679 82.0372 93.71 81.973 93.7403 81.9088C93.7706 81.8446 93.7999 81.7807 93.8286 81.7166C93.8573 81.6525 93.8851 81.5884 93.9122 81.5242C93.9392 81.4602 93.9656 81.396 93.9912 81.3318C94.0171 81.2671 94.0414 81.2037 94.0657 81.1393C94.0802 81.1007 94.0948 81.0616 94.1087 81.0232C94.114 81.0089 94.1188 80.995 94.1238 80.981C94.1279 80.9696 94.1321 80.9581 94.1364 80.9463C94.1805 80.8222 94.2228 80.6969 94.2625 80.5726C94.3025 80.4478 94.3403 80.3232 94.3761 80.1986C94.412 80.0739 94.4456 79.9493 94.4775 79.8246C94.5094 79.7 94.5393 79.5755 94.5674 79.4508C94.5952 79.3265 94.6215 79.2017 94.6452 79.0772C94.6636 78.9809 94.6801 78.8855 94.695 78.7898C94.6845 78.7521 94.6747 78.7149 94.6653 78.6781C94.638 78.571 94.5904 78.4636 94.5405 78.3578C94.5316 78.5459 94.55 78.697 94.5643 78.8408C94.5662 78.8601 94.5682 78.8792 94.5699 78.8983C94.5874 79.0932 94.5884 79.2815 94.4957 79.5346C94.2321 80.2546 94.0613 80.6724 93.9359 80.9327C93.8099 81.1931 93.7215 81.3051 93.5967 81.4097C93.4188 81.5576 93.2901 81.8425 93.256 81.9857C93.2426 82.0377 93.1492 82.0799 93.0475 82.0801C92.9458 82.0802 92.8648 82.0381 92.8668 81.9861C92.8741 81.8349 92.9517 81.5266 93.1385 81.3505C93.221 81.2721 93.2833 81.182 93.3678 80.9255C93.4527 80.669 93.5568 80.2548 93.7422 79.5326C93.8054 79.2883 93.7883 79.1069 93.7544 78.9139C93.7511 78.8949 93.7474 78.8759 93.7439 78.8566C93.7439 78.8565 93.7439 78.8564 93.744 78.8563C93.7117 78.6789 93.6719 78.4857 93.6848 78.2252C93.7148 77.625 93.7026 76.8169 93.6492 76.6247C93.6385 76.587 93.6254 76.5506 93.6118 76.5121C93.5919 76.4559 93.5705 76.3953 93.5526 76.3197C93.5235 76.1965 93.5032 76.0335 93.5133 75.7851C93.5169 75.6973 93.5295 75.5946 93.5487 75.4826C93.4587 75.3137 93.3772 75.1497 93.3386 75.0073C93.3052 74.8844 93.2207 74.7707 93.1254 74.6603C93.098 74.6286 93.0691 74.5966 93.0404 74.5646C92.9711 74.4876 92.9022 74.4105 92.8524 74.3355C92.8127 74.2757 92.7632 74.2131 92.7109 74.1468C92.5206 73.9054 92.296 73.6159 92.3823 73.2416C92.4736 72.8448 92.6101 72.5057 92.7339 72.2134C92.6217 72.4279 92.5105 72.5933 92.4136 72.731C92.3954 72.757 92.3777 72.7819 92.3607 72.8059C92.2405 72.9752 92.1531 73.0983 92.1232 73.2309C91.9813 73.8639 92.0056 74.1021 92.1699 74.3716C92.2132 74.4425 92.2749 74.5209 92.3415 74.6052C92.4747 74.7739 92.6282 74.9667 92.6964 75.1731C92.7599 75.3654 92.869 75.5806 92.9855 75.8084C92.9855 75.8085 92.9855 75.8086 92.9855 75.8087C93.0083 75.8532 93.0313 75.8982 93.0544 75.9436C93.1167 76.0664 93.1788 76.1918 93.2348 76.3182C93.3051 76.4769 93.3668 76.6369 93.4067 76.7945C93.4144 76.8247 93.426 76.861 93.4395 76.9026C93.5186 77.1428 93.6485 77.5641 93.432 78.0775C93.3851 78.1902 93.3066 78.3074 93.2202 78.4411C93.1938 78.4818 93.1665 78.5241 93.1394 78.5683C93.0224 78.7589 92.9007 78.9907 92.8212 79.2994C92.7555 79.5541 92.7165 79.8648 92.6861 80.1871C92.6712 80.3459 92.6583 80.5076 92.6461 80.667C92.6092 81.1483 92.5809 81.5894 92.5911 82.0293C92.5911 82.0294 92.5912 82.0295 92.5912 82.0296C92.5916 82.0816 92.5117 82.1226 92.4117 82.1211C92.3118 82.1196 92.22 82.0763 92.2082 82.0244C92.1142 81.5842 92.0681 81.1442 92.0353 80.6642C92.0245 80.5072 92.0152 80.3466 92.0097 80.1883C91.9981 79.8641 92.0027 79.5488 92.0438 79.2914C92.0938 78.977 92.1991 78.7407 92.3036 78.5472C92.3288 78.5006 92.3538 78.4568 92.3778 78.4152C92.4543 78.2828 92.5218 78.1727 92.56 78.0656C92.7408 77.5679 92.6052 77.162 92.5214 76.9205C92.5067 76.8777 92.4942 76.8401 92.4855 76.8081C92.4416 76.6452 92.3752 76.4791 92.3009 76.3137C92.2485 76.1972 92.191 76.081 92.1331 75.9665C92.1103 75.9215 92.0877 75.8768 92.0651 75.8324C92.065 75.8323 92.0648 75.8322 92.0647 75.8322C91.9485 75.6041 91.8383 75.3848 91.7744 75.1887C91.7096 74.9897 91.5709 74.8156 91.4425 74.6526C91.3736 74.5651 91.3079 74.4809 91.2577 74.3977C91.0853 74.1116 91.0661 73.86 91.2157 73.2243ZM94.2436 81.8347C94.3778 81.7095 94.4596 81.6076 94.5048 81.5318C94.4493 81.5963 94.3938 81.6605 94.3383 81.7249C94.3067 81.7615 94.2752 81.7981 94.2436 81.8347ZM94.4753 75.4726C94.4863 75.4929 94.4973 75.5134 94.5085 75.534C94.5127 75.4774 94.5173 75.4208 94.5219 75.3643C94.5276 75.2949 94.5338 75.2256 94.5401 75.1562C94.5148 75.2664 94.4923 75.3732 94.4753 75.4726ZM93.2903 73.2485C93.2131 73.6011 93.4206 73.8668 93.6106 74.106C93.6653 74.175 93.7184 74.2418 93.7627 74.3078C93.7811 74.3352 93.802 74.3625 93.8246 74.3901C93.8727 74.2307 93.9191 74.0841 93.9573 73.9642C94.0714 73.6062 94.1933 73.403 94.2999 73.2245C94.3307 73.1729 94.3603 73.1232 94.3881 73.0725C94.3668 73.0302 94.3462 72.9863 94.3294 72.9419C94.3056 72.8798 94.2845 72.8127 94.2682 72.7489C94.2517 72.6848 94.2388 72.6197 94.2301 72.5558C94.2213 72.4914 94.2163 72.4276 94.2139 72.3641C94.2116 72.3044 94.2118 72.2448 94.212 72.1872C94.212 72.1839 94.212 72.1806 94.212 72.1773C94.2122 72.1165 94.2126 72.0573 94.207 72.0028C94.2012 71.9473 94.19 71.9012 94.1665 71.8601C94.1373 71.8087 94.1102 71.7561 94.0859 71.704C94.0615 71.6519 94.0398 71.6001 94.0203 71.5484C94.0008 71.4966 93.9834 71.4453 93.9678 71.3939C93.9627 71.3773 93.9576 71.3599 93.9529 71.3434C93.9507 71.3358 93.9485 71.3282 93.9464 71.3207C93.9191 71.4206 93.8893 71.5243 93.8562 71.6315C93.8084 71.7864 93.7399 71.9515 93.6646 72.1337C93.5362 72.4445 93.3874 72.805 93.2903 73.2485ZM94.2485 69.8049C94.2395 69.8484 94.2297 69.9121 94.2173 69.9942C94.2144 70.0137 94.2115 70.0342 94.2083 70.0556C94.2086 70.0551 94.2087 70.0546 94.2091 70.0541C94.2443 70.0012 94.2757 69.9524 94.3067 69.8996C94.3616 69.8056 94.4114 69.7142 94.4576 69.6219C94.5038 69.5292 94.5459 69.4367 94.5841 69.3441C94.6224 69.2513 94.6566 69.1582 94.6866 69.0659C94.7167 68.9727 94.7427 68.8807 94.7637 68.7879C94.7704 68.7583 94.7766 68.7286 94.7823 68.6989C94.7446 68.7648 94.7098 68.8333 94.673 68.9057C94.6436 68.9635 94.6128 69.0239 94.5783 69.0872C94.565 69.1115 94.5468 69.1408 94.5255 69.1751C94.4411 69.3107 94.307 69.5235 94.2485 69.8049ZM94.7574 67.9551C94.758 67.9335 94.7591 67.912 94.761 67.8908C94.7664 67.8303 94.7763 67.7715 94.7874 67.7138C94.7952 67.6733 94.8038 67.6333 94.8122 67.5938C94.8157 67.5772 94.8191 67.5606 94.8226 67.5441C94.8284 67.5165 94.8338 67.4891 94.839 67.4619C94.7623 67.6521 94.6921 67.838 94.6327 68.032C94.6319 68.0346 94.6313 68.0372 94.6305 68.0397C94.6738 68.0109 94.7161 67.9827 94.7574 67.9551Z" fill="#FF6533"/>
<path d="M124.063 77.6145C124.206 77.4666 124.396 77.3443 124.636 77.1904C124.636 77.1903 124.636 77.1902 124.636 77.1901C124.67 77.1681 124.706 77.1455 124.742 77.1221C125.035 76.9332 125.404 76.6852 125.878 76.2871C126.402 75.8475 126.985 75.5502 127.411 75.3905C127.491 75.3607 127.555 75.3244 127.683 75.2227C127.768 75.1561 127.877 75.0643 128.034 74.9322C128.118 74.8619 128.215 74.78 128.33 74.6845C128.71 74.3683 129.234 73.8513 129.723 73.3772C130.019 73.0894 130.302 72.8172 130.527 72.6138C130.857 72.3164 131.202 72.0382 131.578 71.736C131.921 71.4592 132.29 71.1623 132.697 70.8126C133.009 70.5444 133.424 70.319 133.85 70.0916C133.904 70.0626 133.959 70.0336 134.013 70.0045C134.39 69.8039 134.769 69.5972 135.115 69.3535C135.731 68.9188 136.074 68.5251 136.464 68.0929C136.617 67.9238 136.776 67.7485 136.959 67.5617C137.248 67.2663 137.695 66.8515 138.144 66.435C138.183 66.3995 138.221 66.3639 138.259 66.3285C138.259 66.3283 138.259 66.3281 138.26 66.328C138.671 65.9467 139.073 65.5721 139.357 65.2939C139.808 64.8517 139.954 64.6781 140.077 64.5338C140.123 64.4795 140.166 64.4293 140.221 64.3705C140.418 64.1589 140.756 63.8518 141.097 63.5395C141.098 63.5383 141.099 63.5372 141.1 63.536C141.157 63.4842 141.27 63.4624 141.352 63.4871C141.433 63.5119 141.457 63.5749 141.403 63.6277C141.232 63.796 141.064 63.9601 140.918 64.108C140.988 64.1391 141.008 64.197 140.961 64.2447C140.842 64.3644 140.539 64.7485 140.098 65.361C140.153 65.3266 140.201 65.2983 140.244 65.2738C140.294 65.2451 140.334 65.2236 140.369 65.205C140.44 65.1663 140.487 65.1404 140.552 65.0886C140.687 64.9641 140.877 64.7619 141.076 64.5488C141.127 64.4951 141.243 64.4746 141.337 64.5031C141.43 64.5317 141.468 64.5993 141.421 64.6541C141.42 64.6552 141.419 64.6563 141.418 64.6573C141.231 64.8719 141.045 65.0841 140.911 65.2162C140.876 65.2499 140.846 65.2784 140.822 65.2996C140.802 65.3165 140.778 65.3375 140.761 65.3482C140.759 65.3496 140.754 65.3522 140.749 65.3552C140.749 65.3553 140.748 65.3553 140.748 65.3553C140.745 65.357 140.729 65.3656 140.703 65.3724C140.698 65.3737 140.686 65.3766 140.67 65.379C140.668 65.3802 140.666 65.3815 140.663 65.3827C140.633 65.4 140.602 65.4177 140.569 65.4371C140.441 65.5131 140.254 65.6378 139.915 65.9129C139.603 66.166 139.144 66.6144 138.604 67.1841C138.65 67.1486 138.696 67.1129 138.741 67.0771C138.855 66.9869 138.967 66.8954 139.077 66.8034C139.119 66.7681 139.16 66.7333 139.202 66.6977C139.27 66.6404 139.337 66.5828 139.404 66.5251C139.449 66.4861 139.494 66.4469 139.539 66.4078C139.539 66.4077 139.539 66.4076 139.539 66.4075C139.601 66.3532 139.663 66.2986 139.726 66.2437C139.748 66.2245 139.77 66.2055 139.791 66.1867C139.877 66.1115 139.961 66.0376 140.066 65.9553C140.08 65.9456 140.096 65.9354 140.108 65.9278C140.122 65.9197 140.135 65.912 140.147 65.9048C140.158 65.8984 140.169 65.8925 140.179 65.8867C140.181 65.8859 140.182 65.8851 140.183 65.8843C140.195 65.8779 140.206 65.8716 140.216 65.8656C140.226 65.8596 140.236 65.8538 140.245 65.848C140.245 65.848 140.245 65.8479 140.246 65.8478C140.255 65.8417 140.262 65.8371 140.272 65.8304C140.284 65.822 140.294 65.8147 140.305 65.8056C140.317 65.7968 140.328 65.7876 140.339 65.7781C140.35 65.7687 140.361 65.759 140.371 65.749C140.382 65.7391 140.393 65.729 140.404 65.7187C140.415 65.7084 140.425 65.6979 140.436 65.6874C140.447 65.6769 140.458 65.6662 140.468 65.6555C140.493 65.6309 140.537 65.6131 140.589 65.6064C140.642 65.5997 140.699 65.6045 140.749 65.62C140.799 65.6354 140.838 65.6605 140.86 65.69C140.881 65.7194 140.881 65.7508 140.862 65.7772C140.857 65.7844 140.852 65.7917 140.846 65.7989C140.843 65.8033 140.84 65.8076 140.837 65.8119C140.828 65.8235 140.819 65.8353 140.81 65.8471C140.801 65.8588 140.792 65.8706 140.783 65.8825C140.773 65.8945 140.763 65.9065 140.753 65.9186C140.743 65.9306 140.732 65.9429 140.72 65.9551C140.709 65.9671 140.696 65.9805 140.683 65.9923C140.674 66.001 140.661 66.0114 140.651 66.02C140.64 66.029 140.629 66.0377 140.618 66.046C140.607 66.0544 140.596 66.0624 140.586 66.07C140.585 66.0708 140.583 66.0716 140.582 66.0725C140.573 66.0792 140.564 66.0857 140.556 66.0919C140.547 66.0988 140.538 66.1055 140.53 66.1118C140.522 66.1188 140.517 66.1232 140.511 66.1287C140.441 66.2025 140.364 66.2966 140.291 66.3863C140.282 66.3976 140.273 66.4088 140.263 66.4199C140.215 66.4788 140.168 66.5378 140.12 66.5966C140.085 66.6394 140.05 66.6823 140.015 66.7251C139.964 66.7882 139.912 66.8513 139.86 66.9143C139.827 66.9534 139.795 66.9917 139.763 67.0307C139.677 67.1323 139.591 67.2338 139.501 67.3348C139.412 67.4356 139.32 67.5364 139.224 67.636C139.129 67.7352 139.025 67.837 138.918 67.9328C138.838 68.0031 138.746 68.0718 138.657 68.1343C138.609 68.1679 138.562 68.2005 138.515 68.2326C138.514 68.2327 138.514 68.2328 138.514 68.2329C138.473 68.261 138.432 68.2888 138.391 68.3165C138.305 68.3758 138.222 68.4346 138.143 68.4945C138.063 68.5543 137.987 68.6149 137.915 68.6771C137.843 68.7388 137.773 68.8027 137.708 68.867C137.642 68.9316 137.58 68.9961 137.518 69.0647C137.437 69.1549 137.361 69.2459 137.283 69.3395C137.206 69.4325 137.13 69.5267 137.054 69.6212C137.027 69.6543 137.001 69.6873 136.974 69.7204C136.974 69.7206 136.974 69.7207 136.974 69.7208C136.924 69.7821 136.875 69.8436 136.826 69.9051C136.749 70 136.672 70.0951 136.594 70.19C136.515 70.285 136.434 70.3801 136.35 70.4748C136.266 70.5694 136.177 70.6657 136.079 70.7597C135.992 70.8436 135.901 70.9272 135.811 71.0089C135.788 71.0304 135.764 71.052 135.741 71.0736C135.629 71.1759 135.523 71.2756 135.427 71.377C135.33 71.4783 135.243 71.5822 135.161 71.6893C135.08 71.7961 135.005 71.9063 134.934 72.0188C134.862 72.1318 134.796 72.2447 134.731 72.3607C134.666 72.4758 134.604 72.5923 134.543 72.7108C134.509 72.7767 134.471 72.8459 134.432 72.9107C134.393 72.9761 134.353 73.0406 134.313 73.1041C134.296 73.1298 134.28 73.1554 134.264 73.1808C134.24 73.2178 134.216 73.2545 134.193 73.2908C134.155 73.352 134.119 73.4122 134.087 73.4716C134.055 73.5309 134.027 73.5895 134.005 73.6477C133.983 73.7081 133.969 73.7593 133.959 73.8225C133.917 73.9706 133.869 74.0556 133.816 74.1501C133.805 74.1687 133.795 74.1878 133.784 74.2077C133.718 74.3205 133.646 74.431 133.57 74.5385C133.493 74.6471 133.412 74.7524 133.326 74.8576C133.241 74.9618 133.15 75.0652 133.056 75.1669C132.962 75.2685 132.863 75.3685 132.76 75.4674C132.657 75.5662 132.547 75.6656 132.437 75.7598C132.374 75.8142 132.304 75.8711 132.237 75.9234C132.189 75.9612 132.14 75.9982 132.093 76.0344C132.073 76.0492 132.054 76.0639 132.035 76.0785C131.969 76.1288 131.906 76.1778 131.848 76.2261C131.79 76.2744 131.737 76.3221 131.69 76.3701C131.642 76.4183 131.601 76.467 131.564 76.5172C131.527 76.5693 131.5 76.6138 131.471 76.6725C131.453 76.7107 131.435 76.7483 131.417 76.7858C131.391 76.842 131.365 76.8979 131.34 76.9544C131.315 77.0108 131.291 77.0668 131.268 77.1233C131.261 77.1414 131.253 77.1606 131.246 77.1789C131.223 77.2353 131.202 77.2914 131.182 77.3479C131.163 77.4043 131.144 77.4605 131.128 77.5171C131.112 77.5738 131.098 77.6301 131.085 77.6881C131.063 77.7866 131.017 77.8731 130.972 77.9474C130.925 78.0224 130.875 78.0906 130.827 78.157C130.818 78.1694 130.809 78.1818 130.8 78.1943C130.761 78.2477 130.722 78.3002 130.685 78.3524C130.64 78.4166 130.597 78.4803 130.557 78.5448C130.517 78.6087 130.479 78.6739 130.444 78.739C130.409 78.8048 130.378 78.8683 130.348 78.9377C130.318 79.0062 130.295 79.078 130.269 79.1565C130.244 79.2343 130.217 79.3158 130.184 79.3967C130.152 79.4777 130.115 79.5585 130.072 79.637C130.029 79.7158 129.981 79.7932 129.929 79.8681C129.877 79.9434 129.82 80.0169 129.76 80.089C129.7 80.1609 129.634 80.234 129.569 80.3015C129.465 80.4108 129.358 80.5188 129.249 80.6268C129.142 80.7341 129.033 80.8414 128.923 80.9482C128.814 81.0549 128.704 81.1615 128.594 81.2678C128.483 81.3741 128.373 81.4804 128.262 81.5864C128.237 81.6098 128.213 81.6332 128.189 81.6567C128.102 81.7392 128.016 81.8218 127.931 81.904C127.93 81.9046 127.929 81.9051 127.929 81.9057C127.819 82.0116 127.711 82.1156 127.604 82.2211C127.565 82.2599 127.527 82.2972 127.489 82.3353C127.452 82.3734 127.416 82.4109 127.38 82.449C127.349 82.4815 127.319 82.514 127.29 82.5463C127.285 82.5519 127.28 82.5574 127.275 82.563C127.241 82.6012 127.209 82.6386 127.177 82.6767C127.149 82.7117 127.122 82.7468 127.092 82.7851C127.089 82.7886 127.087 82.7921 127.084 82.7956C127.052 82.8375 127.012 82.8844 126.97 82.9267C126.858 83.0383 126.751 83.1475 126.643 83.2591C126.535 83.3707 126.429 83.4825 126.322 83.5951C126.28 83.6391 126.238 83.6833 126.195 83.7273C126.129 83.7959 126.062 83.8646 125.993 83.933C125.88 84.0457 125.763 84.1575 125.639 84.2685C125.515 84.379 125.384 84.4887 125.247 84.5963C125.11 84.7038 124.966 84.8106 124.818 84.9147C124.653 85.0307 124.485 85.1451 124.315 85.2598C124.144 85.3743 123.971 85.4884 123.798 85.6018C123.623 85.7156 123.448 85.829 123.272 85.9424C123.095 86.0559 122.918 86.1692 122.74 86.2827C122.633 86.3507 122.527 86.4186 122.42 86.4866C122.385 86.5277 122.351 86.5671 122.318 86.6049C122.071 86.8836 121.875 87.0802 121.564 87.3289C121.536 87.3532 121.517 87.3737 121.493 87.3985C121.489 87.4033 121.484 87.4083 121.479 87.4134C121.447 87.4458 121.409 87.4826 121.346 87.5315C121.221 87.6292 120.991 87.7701 120.622 87.9376C120.528 87.9798 120.391 87.9895 120.312 87.9582C120.256 87.9361 120.241 87.899 120.264 87.8633C120.177 87.9197 120.09 87.976 120.005 88.0324C119.97 88.0549 119.922 88.0725 119.871 88.0813C119.824 88.0895 119.778 88.0895 119.74 88.0813C119.74 88.0813 119.74 88.0813 119.74 88.0813C119.737 88.0806 119.735 88.0799 119.732 88.0792C119.693 88.0689 119.667 88.0495 119.659 88.025C119.65 88.0005 119.66 87.9729 119.686 87.9484C119.757 87.8835 119.827 87.8189 119.896 87.7542C119.966 87.6894 120.034 87.6249 120.103 87.56C120.171 87.4952 120.238 87.4303 120.306 87.3651C120.372 87.3001 120.439 87.2349 120.505 87.1694C120.571 87.1035 120.636 87.0387 120.701 86.9728C120.74 86.9334 120.78 86.8934 120.818 86.8541C120.832 86.8395 120.846 86.8251 120.86 86.8108C120.871 86.7991 120.883 86.7874 120.895 86.7753C121.018 86.648 121.141 86.5191 121.262 86.391C121.383 86.2623 121.502 86.1335 121.62 86.0044C121.738 85.8752 121.855 85.7457 121.97 85.6159C122.085 85.4862 122.199 85.3562 122.312 85.2257C122.424 85.0957 122.535 84.9648 122.645 84.8337C122.729 84.7324 122.812 84.6315 122.893 84.5302C122.911 84.4866 122.929 84.4437 122.947 84.4013C123 84.278 123.034 84.1498 123.067 84.0228C122.923 84.2266 122.831 84.3961 122.741 84.5568C122.729 84.5784 122.717 84.5998 122.705 84.621C122.582 84.8384 122.449 85.0447 122.189 85.3018C121.449 86.0335 121.013 86.4576 120.724 86.7178C120.434 86.978 120.28 87.0833 120.098 87.1728C119.839 87.2989 119.533 87.5878 119.408 87.7396C119.362 87.7945 119.25 87.8222 119.158 87.8015C119.066 87.7808 119.02 87.7174 119.057 87.66C119.163 87.4935 119.438 87.1672 119.725 87.0113C119.852 86.9417 119.968 86.855 120.219 86.5893C120.47 86.3239 120.844 85.8881 121.518 85.1339C121.747 84.879 121.861 84.6759 121.969 84.4561C121.98 84.4345 121.99 84.4128 122.001 84.3908C122.001 84.3907 122.001 84.3906 122.001 84.3905C122.099 84.1883 122.203 83.967 122.404 83.6839C122.866 83.0314 123.459 82.1435 123.557 81.9207C123.576 81.8769 123.592 81.8339 123.609 81.7886C123.634 81.7225 123.661 81.6511 123.702 81.5641C123.77 81.4225 123.875 81.2393 124.074 80.9699C124.144 80.8748 124.233 80.7655 124.336 80.6475C124.387 80.4416 124.442 80.2429 124.518 80.0781C124.584 79.9358 124.598 79.7912 124.6 79.6478C124.601 79.6065 124.601 79.5646 124.6 79.5228C124.6 79.422 124.6 79.3211 124.615 79.2272C124.627 79.1522 124.633 79.0718 124.639 78.9867C124.662 78.6771 124.694 78.3058 125.065 77.9183C125.459 77.5075 125.848 77.1716 126.189 76.884C125.92 77.0898 125.692 77.2426 125.498 77.369C125.461 77.3929 125.426 77.4157 125.392 77.4377C125.153 77.5928 124.979 77.7059 124.848 77.8433C124.223 78.5002 124.058 78.7674 123.99 79.102C123.973 79.1901 123.965 79.2907 123.958 79.3991C123.943 79.6158 123.927 79.8637 123.828 80.106C123.735 80.3317 123.665 80.5934 123.593 80.8706C123.593 80.8707 123.593 80.8708 123.593 80.8709C123.579 80.925 123.564 80.9798 123.55 81.0351C123.511 81.1842 123.47 81.3364 123.424 81.4879C123.366 81.6784 123.299 81.8682 123.216 82.0502C123.2 82.0851 123.183 82.1276 123.164 82.1763C123.054 82.4582 122.855 82.9494 122.288 83.4642C122.164 83.5775 122.009 83.6885 121.835 83.8163C121.782 83.8552 121.728 83.8956 121.671 83.9381C121.43 84.1218 121.154 84.3501 120.863 84.6737C120.623 84.9405 120.368 85.2756 120.116 85.6261C119.992 85.7988 119.869 85.9753 119.748 86.1494C119.384 86.6753 119.061 87.1597 118.779 87.6515C118.779 87.6516 118.779 87.6517 118.779 87.6518C118.745 87.7097 118.646 87.739 118.556 87.7169C118.467 87.6948 118.413 87.6277 118.436 87.5673C118.643 87.057 118.9 86.5569 119.202 86.0159C119.301 85.8388 119.404 85.6582 119.51 85.4811C119.727 85.1182 119.955 84.7691 120.176 84.4928C120.446 84.1553 120.711 83.9173 120.945 83.7269C121.001 83.6811 121.055 83.6383 121.107 83.5977C121.272 83.4687 121.412 83.3626 121.525 83.2531C122.05 82.7454 122.234 82.2681 122.341 81.9828C122.361 81.9323 122.378 81.888 122.395 81.8508C122.479 81.6614 122.546 81.4633 122.606 81.264C122.649 81.1236 122.687 80.9823 122.724 80.8428C122.738 80.788 122.752 80.7335 122.767 80.6794C122.767 80.6793 122.766 80.6791 122.766 80.679C122.839 80.4009 122.912 80.1337 123.008 79.9032C123.106 79.6691 123.12 79.4448 123.135 79.235C123.143 79.1224 123.152 79.0141 123.173 78.9107C123.247 78.5552 123.428 78.2738 124.063 77.6145ZM120.399 87.7762C120.602 87.666 120.743 87.571 120.834 87.497C120.742 87.5563 120.649 87.6155 120.557 87.6749C120.504 87.7087 120.452 87.7424 120.399 87.7762ZM125.156 80.8569C125.15 80.8817 125.144 80.9066 125.138 80.9317C125.185 80.871 125.232 80.8105 125.28 80.75C125.338 80.6758 125.396 80.6017 125.455 80.5277C125.348 80.6416 125.247 80.7526 125.156 80.8569ZM125.85 78.1475C125.505 78.5128 125.477 78.8531 125.456 79.1599C125.45 79.2482 125.444 79.3339 125.431 79.4165C125.426 79.4508 125.423 79.4857 125.421 79.5212C125.587 79.359 125.742 79.2106 125.869 79.0893C126.249 78.7272 126.515 78.536 126.748 78.3681C126.816 78.3195 126.881 78.2727 126.945 78.2245C126.96 78.1733 126.976 78.1206 126.997 78.0683C127.025 77.995 127.06 77.9169 127.096 77.8436C127.133 77.7699 127.173 77.6961 127.216 77.6245C127.26 77.5524 127.306 77.4819 127.354 77.4124C127.4 77.347 127.447 77.2824 127.493 77.2199C127.496 77.2164 127.499 77.2128 127.501 77.2092C127.55 77.1432 127.597 77.079 127.636 77.0185C127.675 76.9569 127.702 76.904 127.715 76.8536C127.73 76.7907 127.749 76.7269 127.769 76.6644C127.79 76.6019 127.812 76.5402 127.837 76.4793C127.861 76.4183 127.887 76.3584 127.915 76.2987C127.924 76.2795 127.933 76.2593 127.943 76.2403C127.947 76.2315 127.951 76.2227 127.955 76.214C127.851 76.3156 127.742 76.4208 127.628 76.5289C127.463 76.6851 127.271 76.8474 127.061 77.0268C126.701 77.3328 126.285 77.6882 125.85 78.1475ZM129.437 74.6473C129.394 74.6921 129.334 74.7586 129.257 74.8444C129.239 74.8647 129.22 74.8862 129.2 74.9086C129.201 74.9081 129.201 74.9076 129.202 74.9072C129.275 74.8587 129.342 74.8137 129.411 74.7644C129.535 74.6764 129.651 74.5899 129.766 74.5016C129.881 74.4129 129.992 74.3234 130.1 74.2328C130.208 74.1421 130.313 74.05 130.414 73.9577C130.516 73.8645 130.612 73.7717 130.706 73.6766C130.736 73.6463 130.765 73.6158 130.794 73.5851C130.708 73.6469 130.622 73.7122 130.532 73.7812C130.46 73.8363 130.384 73.8938 130.303 73.9537C130.272 73.9766 130.232 74.0037 130.186 74.0354C130.004 74.1609 129.715 74.3574 129.437 74.6473ZM131.376 72.7754C131.394 72.7522 131.412 72.7292 131.431 72.7068C131.485 72.6429 131.541 72.5818 131.597 72.5223C131.637 72.4805 131.677 72.4395 131.716 72.399C131.733 72.3819 131.749 72.3648 131.766 72.3479C131.793 72.3196 131.82 72.2914 131.846 72.2633C131.626 72.4493 131.414 72.6325 131.205 72.8271C131.203 72.8297 131.2 72.8323 131.197 72.8349C131.258 72.8146 131.318 72.7948 131.376 72.7754Z" fill="#FF6533"/>
<path d="M148.857 91.3706C149.06 91.2871 149.284 91.2404 149.566 91.1822C149.566 91.1822 149.566 91.1821 149.566 91.1821C149.607 91.1737 149.648 91.1653 149.691 91.1563C150.036 91.0846 150.478 90.9858 151.096 90.7917C151.78 90.5774 152.419 90.5069 152.847 90.5055C152.927 90.5052 153 90.4944 153.164 90.4484C153.272 90.4182 153.414 90.3743 153.62 90.3114C153.73 90.278 153.857 90.2391 154.007 90.1943C154.503 90.0456 155.241 89.7729 155.929 89.5291C156.346 89.3808 156.743 89.2428 157.052 89.1448C157.503 89.0015 157.953 88.8814 158.442 88.7527C158.891 88.635 159.373 88.51 159.922 88.3564C160.344 88.2387 160.809 88.1941 161.282 88.1544C161.343 88.1493 161.403 88.1443 161.464 88.1393C161.882 88.1049 162.305 88.0683 162.733 87.9909C163.495 87.8525 164.035 87.6538 164.643 87.4438C164.88 87.3616 165.128 87.2774 165.401 87.1936C165.834 87.0609 166.472 86.893 167.115 86.7308C167.17 86.7169 167.225 86.703 167.28 86.6893C167.28 86.6892 167.28 86.6892 167.281 86.6891C167.87 86.5412 168.45 86.4006 168.873 86.2925C169.544 86.1211 169.79 86.0447 169.995 85.9806C170.072 85.9566 170.143 85.9346 170.23 85.9107C170.541 85.8249 171.028 85.7233 171.522 85.6233C171.524 85.6229 171.525 85.6226 171.527 85.6222C171.609 85.6057 171.698 85.6359 171.726 85.6894C171.754 85.743 171.711 85.8013 171.631 85.8199C171.374 85.8786 171.123 85.9366 170.9 85.9913C170.916 86.0446 170.878 86.0981 170.806 86.1159C170.627 86.1607 170.097 86.3349 169.294 86.6427C169.358 86.6374 169.413 86.6343 169.461 86.6322C169.518 86.6298 169.562 86.629 169.599 86.6282C169.678 86.6265 169.73 86.6251 169.816 86.6105C170.008 86.567 170.302 86.4855 170.612 86.4009C170.691 86.3797 170.781 86.4117 170.815 86.4725C170.848 86.5332 170.813 86.6013 170.736 86.6245C170.735 86.625 170.733 86.6255 170.732 86.6259C170.43 86.7164 170.132 86.8069 169.935 86.8563C169.885 86.8688 169.841 86.8788 169.808 86.8858C169.781 86.8913 169.748 86.898 169.728 86.8995C169.726 86.8997 169.721 86.9 169.714 86.9C169.714 86.9 169.714 86.9 169.714 86.9C169.711 86.9 169.693 86.9001 169.671 86.8951C169.666 86.8941 169.657 86.8918 169.644 86.887C169.642 86.8871 169.639 86.8872 169.637 86.8873C169.603 86.8886 169.568 86.8899 169.531 86.8921C169.385 86.9007 169.16 86.9235 168.712 87.0074C168.3 87.0847 167.629 87.2611 166.814 87.5133C166.873 87.5024 166.932 87.4912 166.991 87.4798C167.139 87.451 167.287 87.4207 167.434 87.3896C167.49 87.3777 167.546 87.3659 167.602 87.3536C167.693 87.334 167.784 87.3141 167.875 87.294C167.936 87.2804 167.998 87.2667 168.059 87.2531C168.059 87.253 168.059 87.253 168.06 87.2529C168.145 87.2339 168.23 87.2149 168.316 87.1958C168.346 87.1892 168.376 87.1827 168.405 87.1762C168.523 87.1501 168.638 87.1244 168.775 87.1011C168.792 87.0989 168.811 87.0971 168.825 87.0961C168.84 87.0949 168.855 87.0939 168.869 87.0932C168.881 87.0925 168.893 87.0921 168.905 87.0916C168.906 87.0915 168.908 87.0914 168.909 87.0914C168.922 87.0908 168.934 87.0901 168.946 87.0895C168.957 87.0888 168.969 87.0882 168.979 87.0873C168.98 87.0872 168.98 87.0872 168.98 87.0872C168.991 87.0862 169 87.0854 169.011 87.0839C169.026 87.0821 169.039 87.0802 169.053 87.0777C169.068 87.0752 169.083 87.0723 169.098 87.0692C169.113 87.0661 169.128 87.0627 169.143 87.0592C169.158 87.0557 169.174 87.052 169.189 87.0482C169.205 87.0443 169.22 87.0404 169.236 87.0363C169.252 87.0323 169.267 87.0283 169.283 87.0241C169.32 87.0147 169.363 87.018 169.402 87.0338C169.441 87.0495 169.473 87.0763 169.492 87.1086C169.512 87.141 169.516 87.1767 169.505 87.2084C169.494 87.2401 169.468 87.2651 169.434 87.2782C169.425 87.2817 169.416 87.2853 169.406 87.2889C169.401 87.291 169.395 87.2931 169.389 87.2952C169.374 87.301 169.359 87.3068 169.343 87.3125C169.328 87.3182 169.312 87.3238 169.296 87.3294C169.28 87.335 169.264 87.3406 169.248 87.346C169.231 87.3514 169.214 87.3567 169.197 87.3618C169.18 87.3667 169.16 87.372 169.142 87.3762C169.129 87.3793 169.112 87.3827 169.099 87.3853C169.084 87.3881 169.07 87.3905 169.056 87.3928C169.042 87.395 169.029 87.3969 169.016 87.3988C169.014 87.399 169.013 87.3993 169.012 87.3995C169 87.4011 168.989 87.4027 168.979 87.4043C168.967 87.4061 168.956 87.408 168.946 87.4099C168.934 87.412 168.928 87.4136 168.92 87.4156C168.814 87.4463 168.688 87.4904 168.567 87.5326C168.552 87.5379 168.537 87.5431 168.522 87.5483C168.443 87.5762 168.364 87.6042 168.286 87.6322C168.229 87.6526 168.171 87.6731 168.114 87.6935C168.03 87.7236 167.945 87.7537 167.861 87.7836C167.808 87.8022 167.757 87.8203 167.705 87.8387C167.568 87.8868 167.43 87.9344 167.292 87.9809C167.153 88.0273 167.013 88.0728 166.872 88.1162C166.731 88.1593 166.583 88.2017 166.437 88.238C166.329 88.2645 166.214 88.2849 166.106 88.3018C166.048 88.3108 165.991 88.3193 165.935 88.3274C165.934 88.3275 165.934 88.3275 165.934 88.3275C165.884 88.3346 165.835 88.3416 165.787 88.3489C165.683 88.3644 165.582 88.381 165.482 88.3998C165.383 88.4186 165.285 88.4395 165.189 88.4631C165.093 88.4865 164.997 88.5126 164.904 88.5407C164.81 88.5689 164.719 88.5988 164.625 88.6319C164.502 88.6757 164.381 88.7219 164.258 88.7701C164.136 88.818 164.014 88.8674 163.892 88.9172C163.849 88.9346 163.806 88.9519 163.763 88.9695C163.763 88.9695 163.763 88.9696 163.763 88.9696C163.684 89.0021 163.604 89.0347 163.525 89.0673C163.403 89.1175 163.28 89.1679 163.156 89.2178C163.033 89.2676 162.908 89.3171 162.781 89.3651C162.654 89.4131 162.522 89.4608 162.386 89.5035C162.265 89.5417 162.141 89.5786 162.02 89.6146C161.988 89.6241 161.956 89.6336 161.924 89.6431C161.773 89.6884 161.627 89.7337 161.488 89.7841C161.348 89.8344 161.213 89.89 161.081 89.9508C160.949 90.0114 160.819 90.077 160.691 90.146C160.562 90.2153 160.437 90.2865 160.311 90.3609C160.186 90.4348 160.063 90.5107 159.939 90.5888C159.87 90.6322 159.796 90.6767 159.724 90.7178C159.652 90.7593 159.58 90.7996 159.509 90.8388C159.48 90.8548 159.451 90.8705 159.422 90.8862C159.38 90.9092 159.338 90.9318 159.298 90.9545C159.229 90.9927 159.163 91.0308 159.101 91.0697C159.038 91.1085 158.979 91.1482 158.925 91.1897C158.87 91.2327 158.826 91.2712 158.778 91.3208C158.65 91.4307 158.56 91.4858 158.46 91.5472C158.44 91.5593 158.42 91.5718 158.399 91.5849C158.278 91.6575 158.154 91.7261 158.029 91.791C157.903 91.8566 157.776 91.9183 157.645 91.9781C157.516 92.0374 157.383 92.0944 157.249 92.1488C157.115 92.2031 156.978 92.2549 156.84 92.3044C156.701 92.3538 156.557 92.4016 156.416 92.4452C156.334 92.4704 156.246 92.4953 156.164 92.5177C156.104 92.5339 156.045 92.5494 155.987 92.5645C155.963 92.5707 155.939 92.5769 155.916 92.583C155.835 92.6041 155.758 92.6251 155.684 92.6471C155.61 92.6691 155.541 92.6921 155.476 92.7175C155.41 92.7429 155.349 92.7706 155.291 92.8014C155.23 92.8335 155.183 92.8625 155.125 92.9029C155.087 92.9293 155.051 92.9554 155.015 92.9815C154.96 93.0206 154.907 93.0597 154.853 93.0995C154.8 93.1393 154.748 93.179 154.696 93.2194C154.679 93.2324 154.661 93.2461 154.645 93.2593C154.593 93.2999 154.543 93.3407 154.494 93.3822C154.445 93.4237 154.397 93.4656 154.351 93.5083C154.304 93.5512 154.259 93.5944 154.215 93.6394C154.139 93.7161 154.052 93.7747 153.973 93.8232C153.892 93.872 153.814 93.9141 153.737 93.955C153.723 93.9627 153.708 93.9703 153.694 93.978C153.632 94.0109 153.571 94.0431 153.512 94.0757C153.439 94.1158 153.369 94.1564 153.3 94.1984C153.231 94.24 153.163 94.2833 153.098 94.3276C153.032 94.3724 152.971 94.4166 152.907 94.466C152.843 94.5148 152.783 94.5684 152.717 94.627C152.652 94.6851 152.583 94.7458 152.51 94.8044C152.438 94.863 152.362 94.9199 152.283 94.9732C152.204 95.0267 152.121 95.0774 152.037 95.1248C151.953 95.1724 151.866 95.2172 151.778 95.2597C151.69 95.3021 151.596 95.3438 151.507 95.381C151.362 95.4412 151.217 95.4999 151.07 95.5581C150.924 95.616 150.777 95.6735 150.63 95.7305C150.484 95.7875 150.336 95.8443 150.189 95.9007C150.041 95.9572 149.894 96.0136 149.746 96.0698C149.714 96.0822 149.681 96.0947 149.648 96.1071C149.533 96.1509 149.418 96.1947 149.304 96.2385C149.303 96.2387 149.302 96.239 149.301 96.2393C149.154 96.2957 149.01 96.3513 148.865 96.4084C148.812 96.4295 148.761 96.4498 148.71 96.4707C148.658 96.4917 148.608 96.5125 148.558 96.534C148.515 96.5522 148.473 96.5708 148.432 96.5894C148.424 96.5926 148.417 96.5958 148.41 96.599C148.361 96.6212 148.314 96.6432 148.268 96.6662C148.225 96.6872 148.184 96.709 148.139 96.7326C148.134 96.7347 148.13 96.7369 148.126 96.739C148.076 96.7648 148.018 96.7927 147.961 96.8159C147.809 96.8768 147.661 96.9371 147.512 96.9994C147.363 97.0617 147.215 97.1247 147.065 97.1879C147.007 97.2126 146.948 97.2375 146.889 97.2622C146.797 97.3005 146.705 97.3385 146.611 97.376C146.457 97.4376 146.299 97.4973 146.137 97.5541C145.975 97.6107 145.808 97.6644 145.638 97.7144C145.468 97.7645 145.292 97.8117 145.114 97.8555C144.916 97.9042 144.717 97.9507 144.515 97.9965C144.314 98.0421 144.11 98.0868 143.907 98.1307C143.702 98.1747 143.497 98.218 143.291 98.2609C143.085 98.3037 142.878 98.3462 142.671 98.3886C142.546 98.4139 142.422 98.4391 142.297 98.4644C142.245 98.4886 142.195 98.5118 142.146 98.5337C141.787 98.6952 141.514 98.8025 141.12 98.9184C141.084 98.9305 141.056 98.9419 141.022 98.9557C141.016 98.9583 141.009 98.961 141.002 98.9638C140.958 98.9816 140.906 99.0012 140.826 99.0232C140.669 99.0679 140.403 99.1169 140.011 99.1455C139.911 99.1526 139.797 99.1188 139.754 99.068C139.723 99.0322 139.733 98.9961 139.773 98.9732C139.67 98.9941 139.568 99.0151 139.466 99.0363C139.426 99.0448 139.377 99.0448 139.332 99.0366C139.289 99.029 139.253 99.0149 139.228 98.9965C139.228 98.9965 139.228 98.9965 139.228 98.9965C139.227 98.995 139.225 98.9935 139.223 98.992C139.198 98.9714 139.19 98.9472 139.198 98.9239C139.206 98.9006 139.23 98.8803 139.266 98.8678C139.36 98.8346 139.454 98.8016 139.548 98.7682C139.642 98.7349 139.735 98.7013 139.827 98.6674C139.92 98.6335 140.012 98.5992 140.104 98.5645C140.196 98.5299 140.287 98.4951 140.379 98.4599C140.47 98.4244 140.56 98.3893 140.65 98.3533C140.705 98.3318 140.76 98.31 140.813 98.2884C140.833 98.2803 140.853 98.2724 140.872 98.2645C140.888 98.2581 140.904 98.2516 140.921 98.245C141.094 98.1746 141.268 98.1028 141.439 98.0308C141.611 97.9585 141.781 97.8855 141.951 97.8116C142.12 97.7377 142.288 97.663 142.456 97.5878C142.623 97.5125 142.789 97.4365 142.955 97.3596C143.12 97.2829 143.285 97.2054 143.448 97.127C143.574 97.0664 143.698 97.0055 143.822 96.9439C143.861 96.9121 143.901 96.8809 143.94 96.8503C144.053 96.761 144.156 96.6624 144.255 96.5638C144.023 96.694 143.851 96.8107 143.686 96.9203C143.664 96.935 143.642 96.9496 143.62 96.9641C143.395 97.1119 143.17 97.2473 142.813 97.3871C141.8 97.7849 141.203 98.0116 140.82 98.1441C140.437 98.2765 140.252 98.3183 140.055 98.3383C139.775 98.3658 139.361 98.5167 139.172 98.6064C139.102 98.6384 138.997 98.6274 138.937 98.5817C138.877 98.536 138.879 98.4686 138.942 98.4313C139.125 98.3236 139.538 98.132 139.857 98.0878C139.999 98.0678 140.142 98.0301 140.497 97.8812C140.853 97.7327 141.408 97.4776 142.383 97.0407C142.713 96.8932 142.922 96.7548 143.136 96.6003C143.157 96.5851 143.178 96.5697 143.199 96.5543C143.2 96.5542 143.2 96.5541 143.2 96.554C143.396 96.4116 143.608 96.2544 143.932 96.0738C144.678 95.657 145.664 95.0776 145.872 94.9167C145.913 94.885 145.951 94.8531 145.991 94.8194C146.049 94.7704 146.112 94.7174 146.196 94.6555C146.332 94.5548 146.523 94.43 146.838 94.2597C146.949 94.1996 147.084 94.1332 147.234 94.0635C147.396 93.9024 147.557 93.7488 147.715 93.6307C147.851 93.5287 147.948 93.409 148.036 93.2866C148.061 93.2514 148.086 93.2153 148.111 93.1793C148.171 93.0925 148.232 93.0058 148.3 92.9297C148.355 92.869 148.408 92.8016 148.464 92.7305C148.669 92.4713 148.921 92.1615 149.448 91.9431C150.006 91.7115 150.516 91.5437 150.959 91.4032C150.623 91.496 150.351 91.5562 150.123 91.6047C150.08 91.6138 150.038 91.6225 149.998 91.6309C149.717 91.69 149.512 91.7334 149.325 91.8112C148.435 92.1834 148.145 92.363 147.889 92.6301C147.822 92.7005 147.755 92.7848 147.684 92.8757C147.542 93.0574 147.381 93.2657 147.158 93.4433C146.951 93.6087 146.74 93.8119 146.52 94.0278C146.52 94.0279 146.52 94.0279 146.519 94.028C146.476 94.0701 146.433 94.1128 146.389 94.1558C146.27 94.2718 146.148 94.3898 146.023 94.5055C145.864 94.6509 145.701 94.7933 145.528 94.9238C145.495 94.9489 145.457 94.9801 145.413 95.0159C145.161 95.2237 144.717 95.5833 143.969 95.851C143.805 95.9101 143.618 95.9579 143.406 96.0142C143.341 96.0313 143.274 96.0491 143.205 96.0684C142.907 96.1518 142.556 96.263 142.136 96.45C141.79 96.6045 141.392 96.812 140.986 97.0331C140.786 97.142 140.585 97.2541 140.386 97.3649C139.787 97.6998 139.245 98.0106 138.728 98.3389C138.728 98.339 138.728 98.3391 138.728 98.3391C138.666 98.3776 138.571 98.3718 138.513 98.3257C138.456 98.2796 138.453 98.2064 138.508 98.1628C138.977 97.7961 139.476 97.4519 140.035 97.0854C140.217 96.9655 140.405 96.8439 140.593 96.7256C140.979 96.4834 141.363 96.2561 141.7 96.0877C142.111 95.8823 142.46 95.7597 142.756 95.6679C142.828 95.6459 142.895 95.6258 142.96 95.6069C143.165 95.5466 143.338 95.4985 143.491 95.4392C144.203 95.1647 144.628 94.812 144.881 94.6004C144.925 94.563 144.965 94.5303 145 94.5034C145.178 94.3666 145.348 94.2172 145.513 94.0646C145.629 93.9572 145.743 93.8476 145.855 93.739C145.899 93.6964 145.942 93.6539 145.986 93.6118C145.986 93.6116 145.986 93.6115 145.986 93.6114C146.208 93.3948 146.425 93.1873 146.639 93.0184C146.855 92.8469 147.002 92.6582 147.141 92.4821C147.215 92.3876 147.287 92.297 147.367 92.2144C147.641 91.9308 147.954 91.7432 148.857 91.3706ZM139.932 98.9409C140.158 98.91 140.327 98.8726 140.443 98.8378C140.334 98.8597 140.226 98.8815 140.117 98.9035C140.055 98.916 139.993 98.9284 139.932 98.9409ZM147.751 94.4937C147.732 94.5131 147.713 94.5327 147.693 94.5523C147.765 94.5147 147.838 94.4773 147.911 94.4401C148 94.3943 148.09 94.3488 148.179 94.3035C148.028 94.3683 147.884 94.4322 147.751 94.4937ZM149.916 92.384C149.425 92.5905 149.197 92.8745 148.996 93.1312C148.938 93.2051 148.882 93.2768 148.822 93.3438C148.798 93.3716 148.775 93.4006 148.752 93.4306C148.978 93.3426 149.188 93.2631 149.36 93.1983C149.872 93.0051 150.195 92.9239 150.477 92.8526C150.559 92.832 150.637 92.8122 150.716 92.7908C150.759 92.7516 150.804 92.7116 150.851 92.6732C150.918 92.6192 150.992 92.5631 151.065 92.5117C151.139 92.4599 151.215 92.4093 151.292 92.3615C151.37 92.3133 151.449 92.2674 151.529 92.223C151.604 92.1812 151.681 92.1408 151.755 92.1018C151.759 92.0995 151.763 92.0973 151.768 92.0951C151.846 92.0538 151.922 92.0138 151.989 91.9741C152.058 91.9336 152.111 91.8969 152.152 91.8576C152.203 91.8087 152.257 91.7598 152.312 91.7127C152.367 91.6656 152.423 91.62 152.48 91.5755C152.537 91.531 152.595 91.4879 152.653 91.4455C152.672 91.4318 152.692 91.4176 152.711 91.4042C152.72 91.398 152.729 91.3918 152.738 91.3857C152.594 91.4398 152.444 91.4953 152.289 91.5518C152.064 91.6334 151.816 91.7122 151.542 91.7999C151.075 91.9494 150.534 92.1244 149.916 92.384ZM154.87 90.521C154.808 90.5453 154.72 90.5827 154.606 90.6311C154.579 90.6425 154.55 90.6547 154.521 90.6674C154.521 90.6672 154.522 90.6669 154.523 90.6668C154.61 90.6491 154.689 90.6322 154.774 90.6125C154.925 90.5774 155.069 90.5417 155.213 90.5037C155.358 90.4655 155.501 90.4255 155.641 90.3836C155.783 90.3417 155.922 90.2978 156.059 90.2523C156.196 90.2063 156.331 90.1593 156.464 90.1093C156.507 90.0934 156.549 90.0771 156.591 90.0607C156.486 90.0847 156.378 90.112 156.264 90.1409C156.173 90.1639 156.079 90.188 155.978 90.2123C155.94 90.2216 155.892 90.2317 155.836 90.2435C155.616 90.2904 155.269 90.3637 154.87 90.521ZM157.571 89.5665C157.6 89.5529 157.63 89.5396 157.659 89.5269C157.743 89.4907 157.826 89.4579 157.909 89.4264C157.967 89.4044 158.025 89.3831 158.082 89.362C158.106 89.3531 158.13 89.3442 158.153 89.3354C158.193 89.3207 158.232 89.3059 158.271 89.2912C157.98 89.3739 157.697 89.458 157.41 89.5534C157.406 89.5546 157.402 89.556 157.398 89.5573C157.457 89.5604 157.515 89.5635 157.571 89.5665Z" fill="#FF6533"/>
<path d="M109.392 88.2068C109.767 88.2574 110.098 88.346 110.508 88.4659C110.508 88.466 110.508 88.466 110.508 88.466C110.567 88.4832 110.627 88.5011 110.689 88.5196C111.189 88.6697 111.834 88.8626 112.808 89.1426C113.885 89.4537 114.606 89.8614 114.983 90.1617C115.054 90.218 115.138 90.2633 115.367 90.3583C115.481 90.4059 115.627 90.4646 115.82 90.5439C115.88 90.5684 115.943 90.5949 116.012 90.6237C116.167 90.6885 116.346 90.7649 116.552 90.8569C117.237 91.1593 118.323 91.6182 119.258 92.0958C119.827 92.3839 120.345 92.6745 120.718 92.9078C121.264 93.2491 121.744 93.6085 122.235 94.0115C122.684 94.3812 123.142 94.7872 123.649 95.2636C124.038 95.6298 124.279 96.05 124.493 96.4781C124.52 96.5327 124.547 96.5876 124.574 96.6423C124.648 96.796 124.72 96.9509 124.796 97.1068C124.899 97.3268 125.016 97.5478 125.162 97.7695C125.6 98.4348 126.102 98.9011 126.634 99.4276C126.842 99.6332 127.056 99.8477 127.278 100.085C127.628 100.46 128.1 101.013 128.57 101.569C128.61 101.616 128.65 101.664 128.69 101.711C128.691 101.711 128.691 101.712 128.691 101.712C129.121 102.222 129.541 102.722 129.853 103.088C130.348 103.67 130.54 103.886 130.698 104.068C130.757 104.136 130.812 104.199 130.875 104.276C131.102 104.55 131.427 104.973 131.756 105.401C131.758 105.403 131.759 105.405 131.76 105.406C131.814 105.477 131.859 105.535 131.859 105.534C131.859 105.534 131.809 105.478 131.747 105.41C131.551 105.192 131.36 104.98 131.188 104.79C131.162 104.787 131.1 104.743 131.042 104.683C130.896 104.532 130.446 104.073 129.66 103.388C129.7 103.44 129.734 103.484 129.763 103.523C129.797 103.569 129.823 103.604 129.845 103.634C129.892 103.697 129.924 103.738 129.99 103.807C130.15 103.965 130.413 104.208 130.69 104.464C130.759 104.529 130.794 104.59 130.767 104.601C130.74 104.612 130.656 104.571 130.579 104.509C130.578 104.508 130.576 104.507 130.575 104.506C130.276 104.263 129.981 104.022 129.799 103.863C129.753 103.823 129.713 103.788 129.685 103.761C129.661 103.74 129.633 103.714 129.619 103.698C129.617 103.696 129.613 103.692 129.609 103.687C129.609 103.687 129.609 103.687 129.609 103.687C129.607 103.684 129.596 103.67 129.588 103.654C129.586 103.651 129.583 103.643 129.581 103.634C129.579 103.632 129.578 103.63 129.576 103.629C129.554 103.602 129.531 103.574 129.506 103.545C129.409 103.43 129.248 103.25 128.902 102.881C128.583 102.542 128.014 101.981 127.28 101.292C127.322 101.342 127.364 101.391 127.407 101.441C127.515 101.566 127.626 101.69 127.739 101.813C127.783 101.86 127.826 101.906 127.87 101.954C127.941 102.03 128.013 102.106 128.086 102.181C128.135 102.232 128.184 102.283 128.234 102.334C128.234 102.334 128.234 102.334 128.234 102.335C128.303 102.405 128.373 102.476 128.443 102.547C128.468 102.572 128.492 102.597 128.516 102.621C128.613 102.718 128.708 102.813 128.813 102.924C128.825 102.938 128.838 102.953 128.847 102.965C128.857 102.977 128.866 102.989 128.875 103C128.883 103.01 128.89 103.02 128.897 103.029C128.898 103.03 128.899 103.032 128.9 103.033C128.908 103.043 128.915 103.053 128.923 103.062C128.93 103.072 128.937 103.08 128.945 103.089C128.945 103.089 128.945 103.089 128.945 103.089C128.953 103.099 128.958 103.105 128.967 103.115C128.978 103.127 128.987 103.137 128.999 103.149C129.01 103.161 129.023 103.173 129.035 103.185C129.048 103.197 129.061 103.209 129.074 103.222C129.087 103.234 129.101 103.246 129.115 103.259C129.128 103.272 129.142 103.284 129.157 103.297C129.171 103.31 129.185 103.323 129.2 103.336C129.233 103.366 129.254 103.399 129.259 103.428C129.263 103.457 129.251 103.479 129.224 103.491C129.196 103.502 129.155 103.502 129.109 103.49C129.063 103.478 129.015 103.456 128.976 103.429C128.966 103.421 128.955 103.414 128.945 103.406C128.938 103.402 128.932 103.397 128.926 103.392C128.909 103.38 128.892 103.368 128.875 103.356C128.857 103.343 128.84 103.33 128.823 103.318C128.806 103.305 128.788 103.292 128.771 103.279C128.753 103.265 128.736 103.252 128.718 103.238C128.701 103.224 128.682 103.208 128.665 103.194C128.653 103.183 128.639 103.17 128.627 103.159C128.614 103.148 128.602 103.137 128.591 103.126C128.579 103.114 128.568 103.104 128.558 103.093C128.557 103.092 128.556 103.091 128.554 103.09C128.545 103.081 128.536 103.072 128.528 103.064C128.519 103.055 128.51 103.046 128.501 103.038C128.491 103.029 128.485 103.023 128.477 103.017C128.373 102.932 128.238 102.829 128.11 102.731C128.094 102.719 128.078 102.706 128.062 102.694C127.977 102.63 127.893 102.566 127.809 102.502C127.748 102.455 127.686 102.408 127.625 102.361C127.535 102.292 127.445 102.223 127.355 102.154C127.299 102.111 127.245 102.069 127.19 102.026C127.045 101.913 126.902 101.8 126.76 101.686C126.619 101.572 126.479 101.456 126.342 101.338C126.206 101.221 126.069 101.098 125.944 100.976C125.852 100.886 125.769 100.789 125.695 100.698C125.655 100.65 125.617 100.601 125.58 100.554C125.58 100.554 125.58 100.553 125.58 100.553C125.547 100.511 125.515 100.47 125.484 100.429C125.415 100.341 125.347 100.255 125.276 100.171C125.205 100.086 125.132 100.003 125.055 99.9207C124.978 99.839 124.897 99.7573 124.814 99.6777C124.73 99.5977 124.645 99.5205 124.553 99.4403C124.432 99.3351 124.308 99.2322 124.179 99.127C124.052 99.0227 123.922 98.9181 123.791 98.8132C123.745 98.7766 123.7 98.7398 123.654 98.7031C123.654 98.7029 123.654 98.7028 123.653 98.7026C123.569 98.6347 123.484 98.5666 123.399 98.4983C123.268 98.3929 123.136 98.2871 123.006 98.1802C122.922 98.1112 122.839 98.0415 122.756 97.9712C122.712 97.9344 122.668 97.8976 122.625 97.8607C122.502 97.7561 122.377 97.6489 122.258 97.5376C122.151 97.4384 122.046 97.3379 121.942 97.2401C121.914 97.2143 121.887 97.1885 121.859 97.1626C121.727 97.0403 121.595 96.924 121.454 96.8145C121.313 96.7048 121.161 96.6008 120.999 96.5012C120.838 96.4018 120.665 96.3061 120.486 96.2139C120.306 96.1213 120.122 96.0338 119.931 95.948C119.741 95.8631 119.547 95.7806 119.347 95.7006C119.236 95.656 119.12 95.6076 119.011 95.5615C118.902 95.5149 118.794 95.4682 118.689 95.4221C118.646 95.4035 118.603 95.3849 118.561 95.3665C118.499 95.3398 118.437 95.3134 118.376 95.2878C118.273 95.2448 118.171 95.2041 118.069 95.1668C117.967 95.1296 117.865 95.0959 117.761 95.067C117.654 95.0372 117.561 95.016 117.445 94.9949C117.178 94.9325 117.031 94.8821 116.867 94.8267C116.835 94.8158 116.802 94.8048 116.767 94.7935C116.572 94.7267 116.382 94.657 116.197 94.5866C116.011 94.5155 115.83 94.4437 115.65 94.3693C115.471 94.2956 115.294 94.2195 115.12 94.1421C114.945 94.0649 114.773 93.9861 114.602 93.9053C114.431 93.8245 114.258 93.7402 114.094 93.6574C113.999 93.6096 113.899 93.5571 113.807 93.5076C113.741 93.4719 113.675 93.4364 113.611 93.4018C113.585 93.3876 113.559 93.3735 113.533 93.3597C113.447 93.3136 113.362 93.2695 113.277 93.2289C113.274 93.2274 113.271 93.2258 113.268 93.2243C113.18 93.1825 113.093 93.1443 113.005 93.1105C112.916 93.0766 112.826 93.0472 112.732 93.0215C112.635 92.9952 112.552 92.9762 112.442 92.9564C112.37 92.9436 112.299 92.9314 112.229 92.9195C112.124 92.9017 112.019 92.8848 111.913 92.8685C111.807 92.8523 111.702 92.8371 111.596 92.8228C111.562 92.8181 111.526 92.8133 111.492 92.8089C111.386 92.7953 111.281 92.7828 111.176 92.7716C111.07 92.7604 110.965 92.7506 110.86 92.7423C110.754 92.734 110.65 92.7272 110.542 92.7219C110.359 92.7129 110.198 92.6874 110.059 92.662C109.918 92.6361 109.79 92.6081 109.664 92.5813C109.641 92.5763 109.618 92.5712 109.594 92.5662C109.493 92.5446 109.394 92.5234 109.295 92.5038C109.173 92.4797 109.053 92.4577 108.931 92.4377C108.81 92.4177 108.687 92.3995 108.564 92.3839C108.441 92.3683 108.322 92.3553 108.192 92.3438C108.065 92.3323 107.932 92.3258 107.787 92.319C107.644 92.3122 107.494 92.3051 107.344 92.2951C107.194 92.2851 107.044 92.2722 106.896 92.2563C106.749 92.2403 106.602 92.2212 106.458 92.1998C106.314 92.1783 106.172 92.1544 106.031 92.1287C105.891 92.1031 105.746 92.0747 105.611 92.0466C105.393 92.0011 105.174 91.9554 104.955 91.9107C104.737 91.8661 104.516 91.822 104.295 91.7793C104.074 91.7366 103.851 91.6949 103.628 91.6547C103.427 91.6183 103.224 91.5831 103.02 91.5491C102.996 91.5453 102.971 91.5414 102.946 91.5376C102.891 91.5289 102.835 91.5202 102.78 91.5115C102.584 91.4809 102.388 91.45 102.194 91.4192C102.192 91.4189 102.191 91.4187 102.19 91.4184C101.939 91.3789 101.693 91.3398 101.444 91.3011C101.353 91.2869 101.265 91.2733 101.176 91.2598C101.086 91.2462 100.999 91.2332 100.91 91.2203C100.821 91.2074 100.733 91.195 100.646 91.1831C100.558 91.1712 100.472 91.16 100.386 91.1495C100.306 91.1398 100.227 91.1311 100.14 91.1213C100.133 91.1204 100.125 91.1195 100.117 91.1187C100.022 91.108 99.9148 91.0945 99.8157 91.0794C99.5531 91.039 99.2969 91.0008 99.0358 90.9631C98.7746 90.9253 98.5138 90.8885 98.2507 90.8514C98.148 90.8369 98.0448 90.8225 97.9417 90.8078C97.7811 90.7849 97.6201 90.7617 97.4587 90.7378C97.1931 90.6986 96.9274 90.6575 96.6604 90.6137C96.3945 90.5701 96.1274 90.5237 95.8621 90.4752C95.5969 90.4268 95.3299 90.3756 95.0668 90.3235C94.7737 90.2653 94.4824 90.2066 94.1899 90.1476C93.8978 90.0887 93.6057 90.0295 93.3147 89.9707C93.0227 89.9118 92.7315 89.8531 92.44 89.7948C92.1484 89.7364 91.8569 89.6785 91.5651 89.6209C91.3904 89.5865 91.2158 89.5523 91.041 89.5182C90.9472 89.5062 90.8574 89.4944 90.771 89.4828C90.1328 89.3965 89.6738 89.3234 89.0713 89.2127C89.0135 89.2024 88.9664 89.1947 88.9091 89.185C88.8982 89.1832 88.8866 89.1812 88.8747 89.1792C88.7999 89.1664 88.714 89.1513 88.595 89.1282C88.3575 89.0829 87.9958 89.0026 87.528 88.9006C87.4098 88.8747 87.3353 88.8553 87.3621 88.8549C87.3809 88.8546 87.445 88.8621 87.5228 88.8733C87.3798 88.8494 87.2371 88.826 87.0946 88.8031C87.0377 88.7939 86.9844 88.7851 86.9464 88.7791C86.9112 88.7735 86.8919 88.7708 86.8919 88.7708C86.8919 88.7708 86.892 88.7708 86.8923 88.7709C86.8956 88.7713 86.9215 88.7747 86.9646 88.7797C87.0077 88.7847 87.0643 88.791 87.122 88.7977C87.275 88.8156 87.4274 88.8334 87.5799 88.8513C87.7325 88.8691 87.8845 88.8868 88.0369 88.9045C88.1892 88.9222 88.3415 88.9397 88.4943 88.9571C88.6466 88.9745 88.7992 88.9917 88.952 89.0088C89.1059 89.026 89.2569 89.0427 89.4104 89.0594C89.5024 89.0695 89.5955 89.0796 89.6869 89.0894C89.7209 89.0931 89.7542 89.0966 89.7875 89.1002C89.8146 89.1031 89.842 89.106 89.8701 89.109C90.166 89.1406 90.465 89.1717 90.7614 89.2017C91.0593 89.2318 91.357 89.2613 91.6548 89.2899C91.9528 89.3185 92.2508 89.3463 92.549 89.3734C92.8471 89.4005 93.1452 89.4268 93.444 89.4523C93.7417 89.4777 94.0408 89.5025 94.3395 89.5262C94.5704 89.5445 94.7996 89.562 95.0293 89.5788C95.121 89.5797 95.2117 89.5808 95.3012 89.5818C95.5618 89.5849 95.8245 89.5798 96.0838 89.5725C95.6302 89.5497 95.2639 89.5396 94.9157 89.5277C94.8691 89.5261 94.8227 89.5245 94.7765 89.5229C94.3048 89.5059 93.8508 89.4813 93.2468 89.419C91.5285 89.2423 90.5326 89.1381 89.9127 89.0705C89.2928 89.0029 89.0276 88.9689 88.7809 88.9333C88.4325 88.8823 87.7499 88.8299 87.4062 88.8064C87.2815 88.7974 87.1813 88.7878 87.1825 88.785C87.1837 88.7822 87.2869 88.7825 87.4129 88.7858C87.779 88.7961 88.5243 88.8227 88.942 88.8699C89.1281 88.8906 89.343 88.9105 89.9583 88.9548C90.5736 88.9994 91.5683 89.0663 93.3019 89.1885C93.8883 89.2302 94.3279 89.241 94.7976 89.2444C94.8436 89.2448 94.89 89.245 94.9369 89.2453C94.9371 89.2453 94.9374 89.2453 94.9377 89.2453C95.3693 89.2478 95.84 89.2467 96.47 89.2673C97.9214 89.3169 99.8827 89.3437 100.354 89.3228C100.447 89.3189 100.536 89.3138 100.631 89.3084C100.994 89.2878 101.433 89.2608 102.407 89.2692C102.62 89.2711 102.869 89.2773 103.14 89.2868C103.271 89.2725 103.4 89.2583 103.528 89.2448C103.816 89.2157 104.092 89.1928 104.341 89.1817C104.654 89.1678 104.951 89.1287 105.244 89.0844C105.329 89.0717 105.414 89.0584 105.5 89.0452C105.706 89.0133 105.914 88.9822 106.114 88.9622C106.274 88.9463 106.443 88.9257 106.623 88.9045C107.277 88.8284 108.085 88.7408 109.032 88.8785C110.034 89.0257 110.858 89.2204 111.551 89.4077C111.05 89.2576 110.664 89.1368 110.34 89.0368C110.279 89.018 110.22 89 110.164 88.9828C109.764 88.8618 109.467 88.7794 109.13 88.731C107.513 88.5081 106.871 88.5179 106.14 88.5839C105.948 88.6026 105.733 88.6316 105.504 88.6639C105.046 88.7284 104.53 88.8057 103.995 88.8446C103.87 88.8537 103.741 88.8646 103.609 88.8772C103.231 88.9157 102.825 88.9633 102.401 89.0102C102.4 89.0102 102.4 89.0102 102.4 89.0102C102.289 89.0225 102.177 89.0347 102.065 89.0467C101.377 89.1202 100.657 89.1849 99.9633 89.2113C99.8891 89.2141 99.8001 89.2186 99.6979 89.2235C99.1073 89.2545 98.0752 89.2881 96.8476 89.1801C96.5779 89.1571 96.2999 89.1224 95.9821 89.0854C95.8854 89.0741 95.7848 89.0626 95.6798 89.0511C95.2261 89.0015 94.6727 88.9515 93.9291 88.9152C93.3154 88.8851 92.5644 88.8627 91.7839 88.8428C91.3994 88.8331 91.0077 88.824 90.6215 88.8155C89.4552 88.7898 88.3848 88.7725 87.3131 88.7708C87.3128 88.7708 87.3126 88.7708 87.3124 88.7708C87.1859 88.7702 87.087 88.7685 87.0919 88.7666C87.0968 88.7647 87.2044 88.7586 87.3322 88.7534C88.4139 88.713 89.4897 88.6905 90.6612 88.6754C91.0443 88.6704 91.4359 88.6662 91.8217 88.6631C92.6118 88.6569 93.3786 88.6556 94.0021 88.6671C94.7634 88.6811 95.3304 88.7161 95.7931 88.7536C95.9046 88.7626 96.0092 88.7716 96.1086 88.7804C96.4247 88.8085 96.6869 88.8343 96.9443 88.8494C98.1399 88.9225 99.1378 88.8681 99.7333 88.8245C99.8388 88.8172 99.9315 88.8107 100.01 88.8061C100.693 88.7657 101.406 88.6884 102.095 88.6026C102.207 88.5888 102.319 88.5748 102.429 88.5606C102.43 88.5606 102.43 88.5605 102.43 88.5604C102.878 88.5033 103.312 88.4453 103.714 88.3988C103.83 88.3867 103.943 88.3759 104.054 88.3665C104.583 88.3216 105.062 88.2454 105.515 88.177C105.759 88.1405 105.995 88.1066 106.226 88.0822C107.023 88.0039 107.719 87.9903 109.392 88.2068ZM87.7439 88.9106C88.0372 88.963 88.2762 89.0056 88.4548 89.0344C88.3036 89.0076 88.1528 88.981 88.0017 88.9549C87.9157 88.94 87.8298 88.9252 87.7439 88.9106ZM103.073 89.7567C103.023 89.7614 102.972 89.7662 102.921 89.7709C103.058 89.7755 103.195 89.7803 103.331 89.785C103.357 89.7859 103.383 89.7868 103.408 89.7877C103.55 89.7926 103.692 89.7983 103.833 89.8046C103.69 89.7938 103.549 89.7842 103.411 89.7759C103.295 89.769 103.183 89.7625 103.073 89.7567ZM108.769 89.4028C107.904 89.2692 107.183 89.3426 106.552 89.4114C106.37 89.4314 106.194 89.4514 106.022 89.4672C105.951 89.4737 105.88 89.4818 105.808 89.4908C106.194 89.5368 106.546 89.586 106.833 89.6291C107.688 89.7587 108.15 89.8838 108.553 89.9944C108.669 90.0267 108.78 90.0582 108.894 90.0896C109.002 90.0898 109.114 90.0912 109.225 90.0953C109.382 90.1008 109.55 90.1101 109.708 90.122C109.868 90.1338 110.029 90.1489 110.185 90.1668C110.343 90.1848 110.497 90.2055 110.65 90.2284C110.795 90.25 110.937 90.2736 111.074 90.2971C111.082 90.2985 111.09 90.2998 111.098 90.3012C111.243 90.3261 111.384 90.3511 111.516 90.3712C111.651 90.3916 111.765 90.4052 111.872 90.4096C112.006 90.4151 112.142 90.423 112.276 90.4328C112.41 90.4425 112.543 90.4543 112.674 90.4678C112.805 90.4814 112.935 90.4964 113.064 90.5131C113.105 90.5185 113.149 90.5244 113.19 90.53C113.209 90.5326 113.228 90.5352 113.247 90.5378C113.022 90.4699 112.788 90.4004 112.545 90.3296C112.194 90.2273 111.823 90.1125 111.406 89.9932C110.697 89.7902 109.855 89.5725 108.769 89.4028ZM116.589 91.65C116.497 91.6138 116.36 91.5629 116.182 91.499C116.14 91.4839 116.095 91.4682 116.048 91.4517C116.049 91.4522 116.051 91.4527 116.051 91.4532C116.151 91.51 116.243 91.5622 116.344 91.6172C116.523 91.7153 116.696 91.8098 116.872 91.9043C117.049 91.9992 117.225 92.0928 117.402 92.1858C117.579 92.2789 117.757 92.3713 117.935 92.4621C118.114 92.5537 118.291 92.6434 118.472 92.7325C118.53 92.7609 118.587 92.7892 118.646 92.8174C118.533 92.7407 118.413 92.6641 118.284 92.584C118.181 92.52 118.072 92.4537 117.959 92.3833C117.915 92.3564 117.864 92.3227 117.804 92.2835C117.565 92.1285 117.185 91.8851 116.589 91.65ZM120.183 93.465C120.226 93.4856 120.268 93.5064 120.309 93.5275C120.426 93.5873 120.535 93.6488 120.64 93.7103C120.714 93.7535 120.786 93.7969 120.857 93.8399C120.887 93.8581 120.916 93.8762 120.946 93.8942C120.995 93.9243 121.044 93.9542 121.092 93.984C120.784 93.7553 120.468 93.5388 120.119 93.326C120.114 93.3232 120.11 93.3205 120.105 93.3177C120.132 93.3679 120.158 93.417 120.183 93.465Z" fill="#FF6533"/>
</svg>
